<?xml version="1.0" encoding="UTF-8"?>
<svg xmlns="http://www.w3.org/2000/svg" viewBox="0 0 120.97 108.5">
  <defs>
    <style>
      .cls-1 {
        fill: #fff;
      }

      .cls-2 {
        fill: #262323;
      }
    </style>
  </defs>
  <g id="_Слой_4" data-name="Слой 4">
    <rect class="cls-2" x="8.66" y=".25" width="108" height="108"/>
  </g>
  <g id="_Слой_7" data-name="Слой 7">
    <path class="cls-1" d="m37.16,48.05c.14-.02.29-.04.43-.07l2.77-11.56c-2.33-1.32-5.3-1.41-7.7-.23-2.4,1.17-4.15,3.58-4.53,6.23-.17,1.23-.05,2.55.6,3.61.84,1.38,2.46,2.13,4.06,2.33,1.45.17,2.93-.05,4.37-.31Zm16.57-16.31c1,1.1.28,2.82-.41,4.13-6.99,13.32-6.79,30.15.52,43.3-4.2.35-8.5-.7-12.07-2.93-1.29-.8-2.49-1.76-3.41-2.96-1.78-2.3-2.4-5.33-2.3-8.24.11-2.9.88-5.74,1.64-8.54l.13-.69c-2.65.01-5.34-.14-7.88-.91-2.54-.76-4.95-2.19-6.52-4.33-1.95-2.69-2.4-6.21-2.15-9.52.32-4.35,1.77-8.66,4.4-12.15,2.64-3.48,6.49-6.1,10.77-6.95,2.3-.46,5.04-.26,6.51,1.57,1.73,2.15.85,5.31-.1,7.9l-.45.35c2.77-.23,5.54-.47,8.31-.7,1.06-.09,2.29-.12,3.01.67Z"/>
    <path class="cls-1" d="m108.54,79.39c.01,1.45-1.12,2.71-2.45,3.29-1.33.57-2.83.58-4.28.51-6.02-.25-12.04-1.61-17.39-4.39s-10-7.03-12.87-12.33c1.52,4.15,3.04,8.31,4.56,12.46.35.98.72,2.03.45,3.04-.45,1.65-2.41,2.43-4.12,2.35-2.67-.12-5.11-1.73-6.78-3.82s-2.67-4.63-3.51-7.18c-4.42-13.5-4.76-28.31-.96-42,.29-1.03.65-2.13,1.54-2.72.85-.56,2-.5,2.94-.09s1.71,1.12,2.46,1.81l1.44-.68c-.3-1.45-.59-2.93-.4-4.39s.96-2.93,2.29-3.57c1.13-.55,2.47-.41,3.69-.13,7.02,1.61,12.6,8.18,13.05,15.37.46,7.19-4.24,14.4-11,16.89-.55.21-1.19.46-1.34,1.02-.24.87.9,1.51,1.8,1.4.89-.11,1.75-.59,2.64-.45,1.14.17,1.89,1.31,2.15,2.43s.18,2.3.42,3.42c.56,2.59,2.72,4.5,4.87,6.04,4.58,3.27,9.74,5.73,15.15,7.25,1.25.35,2.54.66,3.64,1.34s2.01,1.84,2.01,3.13Zm-30.72-35.23c1.06-1.23,1.08-3.15.26-4.56-.81-1.4-2.33-2.3-3.92-2.64-1.58-.34-3.24-.18-4.82.17l-.47,9.78c2.02-.17,4.02-.54,5.96-1.12,1.11-.33,2.24-.76,2.99-1.63Z"/>
  </g>
</svg>